G04 #@! TF.FileFunction,Legend,Bot*
%FSLAX46Y46*%
G04 Gerber Fmt 4.6, Leading zero omitted, Abs format (unit mm)*
G04 Created by KiCad (PCBNEW 4.0.7) date 02/16/18 20:59:03*
%MOMM*%
%LPD*%
G01*
G04 APERTURE LIST*
%ADD10C,0.100000*%
%ADD11C,0.120000*%
%ADD12C,0.150000*%
G04 APERTURE END LIST*
D10*
D11*
X165660000Y-28670000D02*
X164460000Y-28670000D01*
X164460000Y-30430000D02*
X165660000Y-30430000D01*
X177690000Y-28670000D02*
X176490000Y-28670000D01*
X176490000Y-30430000D02*
X177690000Y-30430000D01*
X165630000Y-40680000D02*
X164430000Y-40680000D01*
X164430000Y-42440000D02*
X165630000Y-42440000D01*
X177690000Y-40680000D02*
X176490000Y-40680000D01*
X176490000Y-42440000D02*
X177690000Y-42440000D01*
X165630000Y-52680000D02*
X164430000Y-52680000D01*
X164430000Y-54440000D02*
X165630000Y-54440000D01*
X177690000Y-52680000D02*
X176490000Y-52680000D01*
X176490000Y-54440000D02*
X177690000Y-54440000D01*
X165630000Y-64680000D02*
X164430000Y-64680000D01*
X164430000Y-66440000D02*
X165630000Y-66440000D01*
X177700000Y-64690000D02*
X176500000Y-64690000D01*
X176500000Y-66450000D02*
X177700000Y-66450000D01*
X165650000Y-76680000D02*
X164450000Y-76680000D01*
X164450000Y-78440000D02*
X165650000Y-78440000D01*
X177690000Y-76680000D02*
X176490000Y-76680000D01*
X176490000Y-78440000D02*
X177690000Y-78440000D01*
X165630000Y-88680000D02*
X164430000Y-88680000D01*
X164430000Y-90440000D02*
X165630000Y-90440000D01*
X177700000Y-88680000D02*
X176500000Y-88680000D01*
X176500000Y-90440000D02*
X177700000Y-90440000D01*
X165630000Y-100670000D02*
X164430000Y-100670000D01*
X164430000Y-102430000D02*
X165630000Y-102430000D01*
X177690000Y-100680000D02*
X176490000Y-100680000D01*
X176490000Y-102440000D02*
X177690000Y-102440000D01*
X165630000Y-112680000D02*
X164430000Y-112680000D01*
X164430000Y-114440000D02*
X165630000Y-114440000D01*
X177680000Y-112680000D02*
X176480000Y-112680000D01*
X176480000Y-114440000D02*
X177680000Y-114440000D01*
X201770000Y-28680000D02*
X200570000Y-28680000D01*
X200570000Y-30440000D02*
X201770000Y-30440000D01*
X189800000Y-28670000D02*
X188600000Y-28670000D01*
X188600000Y-30430000D02*
X189800000Y-30430000D01*
X201780000Y-40670000D02*
X200580000Y-40670000D01*
X200580000Y-42430000D02*
X201780000Y-42430000D01*
X189790000Y-40680000D02*
X188590000Y-40680000D01*
X188590000Y-42440000D02*
X189790000Y-42440000D01*
X201770000Y-52680000D02*
X200570000Y-52680000D01*
X200570000Y-54440000D02*
X201770000Y-54440000D01*
X189770000Y-52680000D02*
X188570000Y-52680000D01*
X188570000Y-54440000D02*
X189770000Y-54440000D01*
X201770000Y-64680000D02*
X200570000Y-64680000D01*
X200570000Y-66440000D02*
X201770000Y-66440000D01*
X189790000Y-64680000D02*
X188590000Y-64680000D01*
X188590000Y-66440000D02*
X189790000Y-66440000D01*
X201770000Y-76670000D02*
X200570000Y-76670000D01*
X200570000Y-78430000D02*
X201770000Y-78430000D01*
X189790000Y-76680000D02*
X188590000Y-76680000D01*
X188590000Y-78440000D02*
X189790000Y-78440000D01*
X201770000Y-88680000D02*
X200570000Y-88680000D01*
X200570000Y-90440000D02*
X201770000Y-90440000D01*
X189790000Y-88680000D02*
X188590000Y-88680000D01*
X188590000Y-90440000D02*
X189790000Y-90440000D01*
X201770000Y-100680000D02*
X200570000Y-100680000D01*
X200570000Y-102440000D02*
X201770000Y-102440000D01*
X189790000Y-100680000D02*
X188590000Y-100680000D01*
X188590000Y-102440000D02*
X189790000Y-102440000D01*
X201770000Y-112680000D02*
X200570000Y-112680000D01*
X200570000Y-114440000D02*
X201770000Y-114440000D01*
X189790000Y-112680000D02*
X188590000Y-112680000D01*
X188590000Y-114440000D02*
X189790000Y-114440000D01*
X151500000Y-50400000D02*
X151500000Y-98720000D01*
X151500000Y-98720000D02*
X156700000Y-98720000D01*
X156700000Y-98720000D02*
X156700000Y-47800000D01*
X156700000Y-47800000D02*
X154100000Y-47800000D01*
X154100000Y-47800000D02*
X154100000Y-50400000D01*
X154100000Y-50400000D02*
X151500000Y-50400000D01*
X151500000Y-49130000D02*
X151500000Y-47800000D01*
X151500000Y-47800000D02*
X152770000Y-47800000D01*
X207380000Y-50400000D02*
X207380000Y-98720000D01*
X207380000Y-98720000D02*
X212580000Y-98720000D01*
X212580000Y-98720000D02*
X212580000Y-47800000D01*
X212580000Y-47800000D02*
X209980000Y-47800000D01*
X209980000Y-47800000D02*
X209980000Y-50400000D01*
X209980000Y-50400000D02*
X207380000Y-50400000D01*
X207380000Y-49130000D02*
X207380000Y-47800000D01*
X207380000Y-47800000D02*
X208650000Y-47800000D01*
D12*
X131990000Y-29180000D02*
X131990000Y-27780000D01*
X136990000Y-49180000D02*
X136990000Y-50580000D01*
X136990000Y-50580000D02*
X131990000Y-50580000D01*
X131990000Y-50580000D02*
X131990000Y-48780000D01*
X136990000Y-27780000D02*
X131990000Y-27780000D01*
X136990000Y-27780000D02*
X136990000Y-49180000D01*
X131990000Y-29154600D02*
X131990000Y-48154600D01*
X131990000Y-48154600D02*
X131990000Y-49154600D01*
X131990000Y-52040000D02*
X131990000Y-50640000D01*
X136990000Y-72040000D02*
X136990000Y-73440000D01*
X136990000Y-73440000D02*
X131990000Y-73440000D01*
X131990000Y-73440000D02*
X131990000Y-71640000D01*
X136990000Y-50640000D02*
X131990000Y-50640000D01*
X136990000Y-50640000D02*
X136990000Y-72040000D01*
X131990000Y-52014600D02*
X131990000Y-71014600D01*
X131990000Y-71014600D02*
X131990000Y-72014600D01*
X131990000Y-74900000D02*
X131990000Y-73500000D01*
X136990000Y-94900000D02*
X136990000Y-96300000D01*
X136990000Y-96300000D02*
X131990000Y-96300000D01*
X131990000Y-96300000D02*
X131990000Y-94500000D01*
X136990000Y-73500000D02*
X131990000Y-73500000D01*
X136990000Y-73500000D02*
X136990000Y-94900000D01*
X131990000Y-74874600D02*
X131990000Y-93874600D01*
X131990000Y-93874600D02*
X131990000Y-94874600D01*
X131990000Y-97760000D02*
X131990000Y-96360000D01*
X136990000Y-117760000D02*
X136990000Y-119160000D01*
X136990000Y-119160000D02*
X131990000Y-119160000D01*
X131990000Y-119160000D02*
X131990000Y-117360000D01*
X136990000Y-96360000D02*
X131990000Y-96360000D01*
X136990000Y-96360000D02*
X136990000Y-117760000D01*
X131990000Y-97734600D02*
X131990000Y-116734600D01*
X131990000Y-116734600D02*
X131990000Y-117734600D01*
X232030000Y-49190000D02*
X232030000Y-50590000D01*
X227030000Y-29190000D02*
X227030000Y-27790000D01*
X227030000Y-27790000D02*
X232030000Y-27790000D01*
X232030000Y-27790000D02*
X232030000Y-29590000D01*
X227030000Y-50590000D02*
X232030000Y-50590000D01*
X227030000Y-50590000D02*
X227030000Y-29190000D01*
X232030000Y-49215400D02*
X232030000Y-30215400D01*
X232030000Y-30215400D02*
X232030000Y-29215400D01*
X232030000Y-72050000D02*
X232030000Y-73450000D01*
X227030000Y-52050000D02*
X227030000Y-50650000D01*
X227030000Y-50650000D02*
X232030000Y-50650000D01*
X232030000Y-50650000D02*
X232030000Y-52450000D01*
X227030000Y-73450000D02*
X232030000Y-73450000D01*
X227030000Y-73450000D02*
X227030000Y-52050000D01*
X232030000Y-72075400D02*
X232030000Y-53075400D01*
X232030000Y-53075400D02*
X232030000Y-52075400D01*
X232030000Y-94910000D02*
X232030000Y-96310000D01*
X227030000Y-74910000D02*
X227030000Y-73510000D01*
X227030000Y-73510000D02*
X232030000Y-73510000D01*
X232030000Y-73510000D02*
X232030000Y-75310000D01*
X227030000Y-96310000D02*
X232030000Y-96310000D01*
X227030000Y-96310000D02*
X227030000Y-74910000D01*
X232030000Y-94935400D02*
X232030000Y-75935400D01*
X232030000Y-75935400D02*
X232030000Y-74935400D01*
X232030000Y-117770000D02*
X232030000Y-119170000D01*
X227030000Y-97770000D02*
X227030000Y-96370000D01*
X227030000Y-96370000D02*
X232030000Y-96370000D01*
X232030000Y-96370000D02*
X232030000Y-98170000D01*
X227030000Y-119170000D02*
X232030000Y-119170000D01*
X227030000Y-119170000D02*
X227030000Y-97770000D01*
X232030000Y-117795400D02*
X232030000Y-98795400D01*
X232030000Y-98795400D02*
X232030000Y-97795400D01*
D11*
X222720000Y-23930000D02*
X221520000Y-23930000D01*
X221520000Y-25690000D02*
X222720000Y-25690000D01*
X142510000Y-27650000D02*
X143710000Y-27650000D01*
X143710000Y-25890000D02*
X142510000Y-25890000D01*
D12*
X165226666Y-31702381D02*
X165560000Y-31226190D01*
X165798095Y-31702381D02*
X165798095Y-30702381D01*
X165417142Y-30702381D01*
X165321904Y-30750000D01*
X165274285Y-30797619D01*
X165226666Y-30892857D01*
X165226666Y-31035714D01*
X165274285Y-31130952D01*
X165321904Y-31178571D01*
X165417142Y-31226190D01*
X165798095Y-31226190D01*
X164274285Y-31702381D02*
X164845714Y-31702381D01*
X164560000Y-31702381D02*
X164560000Y-30702381D01*
X164655238Y-30845238D01*
X164750476Y-30940476D01*
X164845714Y-30988095D01*
X177256666Y-31702381D02*
X177590000Y-31226190D01*
X177828095Y-31702381D02*
X177828095Y-30702381D01*
X177447142Y-30702381D01*
X177351904Y-30750000D01*
X177304285Y-30797619D01*
X177256666Y-30892857D01*
X177256666Y-31035714D01*
X177304285Y-31130952D01*
X177351904Y-31178571D01*
X177447142Y-31226190D01*
X177828095Y-31226190D01*
X176875714Y-30797619D02*
X176828095Y-30750000D01*
X176732857Y-30702381D01*
X176494761Y-30702381D01*
X176399523Y-30750000D01*
X176351904Y-30797619D01*
X176304285Y-30892857D01*
X176304285Y-30988095D01*
X176351904Y-31130952D01*
X176923333Y-31702381D01*
X176304285Y-31702381D01*
X165196666Y-43712381D02*
X165530000Y-43236190D01*
X165768095Y-43712381D02*
X165768095Y-42712381D01*
X165387142Y-42712381D01*
X165291904Y-42760000D01*
X165244285Y-42807619D01*
X165196666Y-42902857D01*
X165196666Y-43045714D01*
X165244285Y-43140952D01*
X165291904Y-43188571D01*
X165387142Y-43236190D01*
X165768095Y-43236190D01*
X164863333Y-42712381D02*
X164244285Y-42712381D01*
X164577619Y-43093333D01*
X164434761Y-43093333D01*
X164339523Y-43140952D01*
X164291904Y-43188571D01*
X164244285Y-43283810D01*
X164244285Y-43521905D01*
X164291904Y-43617143D01*
X164339523Y-43664762D01*
X164434761Y-43712381D01*
X164720476Y-43712381D01*
X164815714Y-43664762D01*
X164863333Y-43617143D01*
X177256666Y-43712381D02*
X177590000Y-43236190D01*
X177828095Y-43712381D02*
X177828095Y-42712381D01*
X177447142Y-42712381D01*
X177351904Y-42760000D01*
X177304285Y-42807619D01*
X177256666Y-42902857D01*
X177256666Y-43045714D01*
X177304285Y-43140952D01*
X177351904Y-43188571D01*
X177447142Y-43236190D01*
X177828095Y-43236190D01*
X176399523Y-43045714D02*
X176399523Y-43712381D01*
X176637619Y-42664762D02*
X176875714Y-43379048D01*
X176256666Y-43379048D01*
X165196666Y-55712381D02*
X165530000Y-55236190D01*
X165768095Y-55712381D02*
X165768095Y-54712381D01*
X165387142Y-54712381D01*
X165291904Y-54760000D01*
X165244285Y-54807619D01*
X165196666Y-54902857D01*
X165196666Y-55045714D01*
X165244285Y-55140952D01*
X165291904Y-55188571D01*
X165387142Y-55236190D01*
X165768095Y-55236190D01*
X164291904Y-54712381D02*
X164768095Y-54712381D01*
X164815714Y-55188571D01*
X164768095Y-55140952D01*
X164672857Y-55093333D01*
X164434761Y-55093333D01*
X164339523Y-55140952D01*
X164291904Y-55188571D01*
X164244285Y-55283810D01*
X164244285Y-55521905D01*
X164291904Y-55617143D01*
X164339523Y-55664762D01*
X164434761Y-55712381D01*
X164672857Y-55712381D01*
X164768095Y-55664762D01*
X164815714Y-55617143D01*
X177256666Y-55712381D02*
X177590000Y-55236190D01*
X177828095Y-55712381D02*
X177828095Y-54712381D01*
X177447142Y-54712381D01*
X177351904Y-54760000D01*
X177304285Y-54807619D01*
X177256666Y-54902857D01*
X177256666Y-55045714D01*
X177304285Y-55140952D01*
X177351904Y-55188571D01*
X177447142Y-55236190D01*
X177828095Y-55236190D01*
X176399523Y-54712381D02*
X176590000Y-54712381D01*
X176685238Y-54760000D01*
X176732857Y-54807619D01*
X176828095Y-54950476D01*
X176875714Y-55140952D01*
X176875714Y-55521905D01*
X176828095Y-55617143D01*
X176780476Y-55664762D01*
X176685238Y-55712381D01*
X176494761Y-55712381D01*
X176399523Y-55664762D01*
X176351904Y-55617143D01*
X176304285Y-55521905D01*
X176304285Y-55283810D01*
X176351904Y-55188571D01*
X176399523Y-55140952D01*
X176494761Y-55093333D01*
X176685238Y-55093333D01*
X176780476Y-55140952D01*
X176828095Y-55188571D01*
X176875714Y-55283810D01*
X165196666Y-67712381D02*
X165530000Y-67236190D01*
X165768095Y-67712381D02*
X165768095Y-66712381D01*
X165387142Y-66712381D01*
X165291904Y-66760000D01*
X165244285Y-66807619D01*
X165196666Y-66902857D01*
X165196666Y-67045714D01*
X165244285Y-67140952D01*
X165291904Y-67188571D01*
X165387142Y-67236190D01*
X165768095Y-67236190D01*
X164863333Y-66712381D02*
X164196666Y-66712381D01*
X164625238Y-67712381D01*
X177266666Y-67722381D02*
X177600000Y-67246190D01*
X177838095Y-67722381D02*
X177838095Y-66722381D01*
X177457142Y-66722381D01*
X177361904Y-66770000D01*
X177314285Y-66817619D01*
X177266666Y-66912857D01*
X177266666Y-67055714D01*
X177314285Y-67150952D01*
X177361904Y-67198571D01*
X177457142Y-67246190D01*
X177838095Y-67246190D01*
X176695238Y-67150952D02*
X176790476Y-67103333D01*
X176838095Y-67055714D01*
X176885714Y-66960476D01*
X176885714Y-66912857D01*
X176838095Y-66817619D01*
X176790476Y-66770000D01*
X176695238Y-66722381D01*
X176504761Y-66722381D01*
X176409523Y-66770000D01*
X176361904Y-66817619D01*
X176314285Y-66912857D01*
X176314285Y-66960476D01*
X176361904Y-67055714D01*
X176409523Y-67103333D01*
X176504761Y-67150952D01*
X176695238Y-67150952D01*
X176790476Y-67198571D01*
X176838095Y-67246190D01*
X176885714Y-67341429D01*
X176885714Y-67531905D01*
X176838095Y-67627143D01*
X176790476Y-67674762D01*
X176695238Y-67722381D01*
X176504761Y-67722381D01*
X176409523Y-67674762D01*
X176361904Y-67627143D01*
X176314285Y-67531905D01*
X176314285Y-67341429D01*
X176361904Y-67246190D01*
X176409523Y-67198571D01*
X176504761Y-67150952D01*
X165216666Y-79712381D02*
X165550000Y-79236190D01*
X165788095Y-79712381D02*
X165788095Y-78712381D01*
X165407142Y-78712381D01*
X165311904Y-78760000D01*
X165264285Y-78807619D01*
X165216666Y-78902857D01*
X165216666Y-79045714D01*
X165264285Y-79140952D01*
X165311904Y-79188571D01*
X165407142Y-79236190D01*
X165788095Y-79236190D01*
X164740476Y-79712381D02*
X164550000Y-79712381D01*
X164454761Y-79664762D01*
X164407142Y-79617143D01*
X164311904Y-79474286D01*
X164264285Y-79283810D01*
X164264285Y-78902857D01*
X164311904Y-78807619D01*
X164359523Y-78760000D01*
X164454761Y-78712381D01*
X164645238Y-78712381D01*
X164740476Y-78760000D01*
X164788095Y-78807619D01*
X164835714Y-78902857D01*
X164835714Y-79140952D01*
X164788095Y-79236190D01*
X164740476Y-79283810D01*
X164645238Y-79331429D01*
X164454761Y-79331429D01*
X164359523Y-79283810D01*
X164311904Y-79236190D01*
X164264285Y-79140952D01*
X177732857Y-79712381D02*
X178066191Y-79236190D01*
X178304286Y-79712381D02*
X178304286Y-78712381D01*
X177923333Y-78712381D01*
X177828095Y-78760000D01*
X177780476Y-78807619D01*
X177732857Y-78902857D01*
X177732857Y-79045714D01*
X177780476Y-79140952D01*
X177828095Y-79188571D01*
X177923333Y-79236190D01*
X178304286Y-79236190D01*
X176780476Y-79712381D02*
X177351905Y-79712381D01*
X177066191Y-79712381D02*
X177066191Y-78712381D01*
X177161429Y-78855238D01*
X177256667Y-78950476D01*
X177351905Y-78998095D01*
X176161429Y-78712381D02*
X176066190Y-78712381D01*
X175970952Y-78760000D01*
X175923333Y-78807619D01*
X175875714Y-78902857D01*
X175828095Y-79093333D01*
X175828095Y-79331429D01*
X175875714Y-79521905D01*
X175923333Y-79617143D01*
X175970952Y-79664762D01*
X176066190Y-79712381D01*
X176161429Y-79712381D01*
X176256667Y-79664762D01*
X176304286Y-79617143D01*
X176351905Y-79521905D01*
X176399524Y-79331429D01*
X176399524Y-79093333D01*
X176351905Y-78902857D01*
X176304286Y-78807619D01*
X176256667Y-78760000D01*
X176161429Y-78712381D01*
X165672857Y-91712381D02*
X166006191Y-91236190D01*
X166244286Y-91712381D02*
X166244286Y-90712381D01*
X165863333Y-90712381D01*
X165768095Y-90760000D01*
X165720476Y-90807619D01*
X165672857Y-90902857D01*
X165672857Y-91045714D01*
X165720476Y-91140952D01*
X165768095Y-91188571D01*
X165863333Y-91236190D01*
X166244286Y-91236190D01*
X164720476Y-91712381D02*
X165291905Y-91712381D01*
X165006191Y-91712381D02*
X165006191Y-90712381D01*
X165101429Y-90855238D01*
X165196667Y-90950476D01*
X165291905Y-90998095D01*
X163768095Y-91712381D02*
X164339524Y-91712381D01*
X164053810Y-91712381D02*
X164053810Y-90712381D01*
X164149048Y-90855238D01*
X164244286Y-90950476D01*
X164339524Y-90998095D01*
X177742857Y-91712381D02*
X178076191Y-91236190D01*
X178314286Y-91712381D02*
X178314286Y-90712381D01*
X177933333Y-90712381D01*
X177838095Y-90760000D01*
X177790476Y-90807619D01*
X177742857Y-90902857D01*
X177742857Y-91045714D01*
X177790476Y-91140952D01*
X177838095Y-91188571D01*
X177933333Y-91236190D01*
X178314286Y-91236190D01*
X176790476Y-91712381D02*
X177361905Y-91712381D01*
X177076191Y-91712381D02*
X177076191Y-90712381D01*
X177171429Y-90855238D01*
X177266667Y-90950476D01*
X177361905Y-90998095D01*
X176409524Y-90807619D02*
X176361905Y-90760000D01*
X176266667Y-90712381D01*
X176028571Y-90712381D01*
X175933333Y-90760000D01*
X175885714Y-90807619D01*
X175838095Y-90902857D01*
X175838095Y-90998095D01*
X175885714Y-91140952D01*
X176457143Y-91712381D01*
X175838095Y-91712381D01*
X165672857Y-103702381D02*
X166006191Y-103226190D01*
X166244286Y-103702381D02*
X166244286Y-102702381D01*
X165863333Y-102702381D01*
X165768095Y-102750000D01*
X165720476Y-102797619D01*
X165672857Y-102892857D01*
X165672857Y-103035714D01*
X165720476Y-103130952D01*
X165768095Y-103178571D01*
X165863333Y-103226190D01*
X166244286Y-103226190D01*
X164720476Y-103702381D02*
X165291905Y-103702381D01*
X165006191Y-103702381D02*
X165006191Y-102702381D01*
X165101429Y-102845238D01*
X165196667Y-102940476D01*
X165291905Y-102988095D01*
X164387143Y-102702381D02*
X163768095Y-102702381D01*
X164101429Y-103083333D01*
X163958571Y-103083333D01*
X163863333Y-103130952D01*
X163815714Y-103178571D01*
X163768095Y-103273810D01*
X163768095Y-103511905D01*
X163815714Y-103607143D01*
X163863333Y-103654762D01*
X163958571Y-103702381D01*
X164244286Y-103702381D01*
X164339524Y-103654762D01*
X164387143Y-103607143D01*
X177732857Y-103712381D02*
X178066191Y-103236190D01*
X178304286Y-103712381D02*
X178304286Y-102712381D01*
X177923333Y-102712381D01*
X177828095Y-102760000D01*
X177780476Y-102807619D01*
X177732857Y-102902857D01*
X177732857Y-103045714D01*
X177780476Y-103140952D01*
X177828095Y-103188571D01*
X177923333Y-103236190D01*
X178304286Y-103236190D01*
X176780476Y-103712381D02*
X177351905Y-103712381D01*
X177066191Y-103712381D02*
X177066191Y-102712381D01*
X177161429Y-102855238D01*
X177256667Y-102950476D01*
X177351905Y-102998095D01*
X175923333Y-103045714D02*
X175923333Y-103712381D01*
X176161429Y-102664762D02*
X176399524Y-103379048D01*
X175780476Y-103379048D01*
X165672857Y-115712381D02*
X166006191Y-115236190D01*
X166244286Y-115712381D02*
X166244286Y-114712381D01*
X165863333Y-114712381D01*
X165768095Y-114760000D01*
X165720476Y-114807619D01*
X165672857Y-114902857D01*
X165672857Y-115045714D01*
X165720476Y-115140952D01*
X165768095Y-115188571D01*
X165863333Y-115236190D01*
X166244286Y-115236190D01*
X164720476Y-115712381D02*
X165291905Y-115712381D01*
X165006191Y-115712381D02*
X165006191Y-114712381D01*
X165101429Y-114855238D01*
X165196667Y-114950476D01*
X165291905Y-114998095D01*
X163815714Y-114712381D02*
X164291905Y-114712381D01*
X164339524Y-115188571D01*
X164291905Y-115140952D01*
X164196667Y-115093333D01*
X163958571Y-115093333D01*
X163863333Y-115140952D01*
X163815714Y-115188571D01*
X163768095Y-115283810D01*
X163768095Y-115521905D01*
X163815714Y-115617143D01*
X163863333Y-115664762D01*
X163958571Y-115712381D01*
X164196667Y-115712381D01*
X164291905Y-115664762D01*
X164339524Y-115617143D01*
X177722857Y-115712381D02*
X178056191Y-115236190D01*
X178294286Y-115712381D02*
X178294286Y-114712381D01*
X177913333Y-114712381D01*
X177818095Y-114760000D01*
X177770476Y-114807619D01*
X177722857Y-114902857D01*
X177722857Y-115045714D01*
X177770476Y-115140952D01*
X177818095Y-115188571D01*
X177913333Y-115236190D01*
X178294286Y-115236190D01*
X176770476Y-115712381D02*
X177341905Y-115712381D01*
X177056191Y-115712381D02*
X177056191Y-114712381D01*
X177151429Y-114855238D01*
X177246667Y-114950476D01*
X177341905Y-114998095D01*
X175913333Y-114712381D02*
X176103810Y-114712381D01*
X176199048Y-114760000D01*
X176246667Y-114807619D01*
X176341905Y-114950476D01*
X176389524Y-115140952D01*
X176389524Y-115521905D01*
X176341905Y-115617143D01*
X176294286Y-115664762D01*
X176199048Y-115712381D01*
X176008571Y-115712381D01*
X175913333Y-115664762D01*
X175865714Y-115617143D01*
X175818095Y-115521905D01*
X175818095Y-115283810D01*
X175865714Y-115188571D01*
X175913333Y-115140952D01*
X176008571Y-115093333D01*
X176199048Y-115093333D01*
X176294286Y-115140952D01*
X176341905Y-115188571D01*
X176389524Y-115283810D01*
X201812857Y-31712381D02*
X202146191Y-31236190D01*
X202384286Y-31712381D02*
X202384286Y-30712381D01*
X202003333Y-30712381D01*
X201908095Y-30760000D01*
X201860476Y-30807619D01*
X201812857Y-30902857D01*
X201812857Y-31045714D01*
X201860476Y-31140952D01*
X201908095Y-31188571D01*
X202003333Y-31236190D01*
X202384286Y-31236190D01*
X200860476Y-31712381D02*
X201431905Y-31712381D01*
X201146191Y-31712381D02*
X201146191Y-30712381D01*
X201241429Y-30855238D01*
X201336667Y-30950476D01*
X201431905Y-30998095D01*
X200527143Y-30712381D02*
X199860476Y-30712381D01*
X200289048Y-31712381D01*
X189842857Y-31702381D02*
X190176191Y-31226190D01*
X190414286Y-31702381D02*
X190414286Y-30702381D01*
X190033333Y-30702381D01*
X189938095Y-30750000D01*
X189890476Y-30797619D01*
X189842857Y-30892857D01*
X189842857Y-31035714D01*
X189890476Y-31130952D01*
X189938095Y-31178571D01*
X190033333Y-31226190D01*
X190414286Y-31226190D01*
X188890476Y-31702381D02*
X189461905Y-31702381D01*
X189176191Y-31702381D02*
X189176191Y-30702381D01*
X189271429Y-30845238D01*
X189366667Y-30940476D01*
X189461905Y-30988095D01*
X188319048Y-31130952D02*
X188414286Y-31083333D01*
X188461905Y-31035714D01*
X188509524Y-30940476D01*
X188509524Y-30892857D01*
X188461905Y-30797619D01*
X188414286Y-30750000D01*
X188319048Y-30702381D01*
X188128571Y-30702381D01*
X188033333Y-30750000D01*
X187985714Y-30797619D01*
X187938095Y-30892857D01*
X187938095Y-30940476D01*
X187985714Y-31035714D01*
X188033333Y-31083333D01*
X188128571Y-31130952D01*
X188319048Y-31130952D01*
X188414286Y-31178571D01*
X188461905Y-31226190D01*
X188509524Y-31321429D01*
X188509524Y-31511905D01*
X188461905Y-31607143D01*
X188414286Y-31654762D01*
X188319048Y-31702381D01*
X188128571Y-31702381D01*
X188033333Y-31654762D01*
X187985714Y-31607143D01*
X187938095Y-31511905D01*
X187938095Y-31321429D01*
X187985714Y-31226190D01*
X188033333Y-31178571D01*
X188128571Y-31130952D01*
X201822857Y-43702381D02*
X202156191Y-43226190D01*
X202394286Y-43702381D02*
X202394286Y-42702381D01*
X202013333Y-42702381D01*
X201918095Y-42750000D01*
X201870476Y-42797619D01*
X201822857Y-42892857D01*
X201822857Y-43035714D01*
X201870476Y-43130952D01*
X201918095Y-43178571D01*
X202013333Y-43226190D01*
X202394286Y-43226190D01*
X200870476Y-43702381D02*
X201441905Y-43702381D01*
X201156191Y-43702381D02*
X201156191Y-42702381D01*
X201251429Y-42845238D01*
X201346667Y-42940476D01*
X201441905Y-42988095D01*
X200394286Y-43702381D02*
X200203810Y-43702381D01*
X200108571Y-43654762D01*
X200060952Y-43607143D01*
X199965714Y-43464286D01*
X199918095Y-43273810D01*
X199918095Y-42892857D01*
X199965714Y-42797619D01*
X200013333Y-42750000D01*
X200108571Y-42702381D01*
X200299048Y-42702381D01*
X200394286Y-42750000D01*
X200441905Y-42797619D01*
X200489524Y-42892857D01*
X200489524Y-43130952D01*
X200441905Y-43226190D01*
X200394286Y-43273810D01*
X200299048Y-43321429D01*
X200108571Y-43321429D01*
X200013333Y-43273810D01*
X199965714Y-43226190D01*
X199918095Y-43130952D01*
X189832857Y-43712381D02*
X190166191Y-43236190D01*
X190404286Y-43712381D02*
X190404286Y-42712381D01*
X190023333Y-42712381D01*
X189928095Y-42760000D01*
X189880476Y-42807619D01*
X189832857Y-42902857D01*
X189832857Y-43045714D01*
X189880476Y-43140952D01*
X189928095Y-43188571D01*
X190023333Y-43236190D01*
X190404286Y-43236190D01*
X189451905Y-42807619D02*
X189404286Y-42760000D01*
X189309048Y-42712381D01*
X189070952Y-42712381D01*
X188975714Y-42760000D01*
X188928095Y-42807619D01*
X188880476Y-42902857D01*
X188880476Y-42998095D01*
X188928095Y-43140952D01*
X189499524Y-43712381D01*
X188880476Y-43712381D01*
X188261429Y-42712381D02*
X188166190Y-42712381D01*
X188070952Y-42760000D01*
X188023333Y-42807619D01*
X187975714Y-42902857D01*
X187928095Y-43093333D01*
X187928095Y-43331429D01*
X187975714Y-43521905D01*
X188023333Y-43617143D01*
X188070952Y-43664762D01*
X188166190Y-43712381D01*
X188261429Y-43712381D01*
X188356667Y-43664762D01*
X188404286Y-43617143D01*
X188451905Y-43521905D01*
X188499524Y-43331429D01*
X188499524Y-43093333D01*
X188451905Y-42902857D01*
X188404286Y-42807619D01*
X188356667Y-42760000D01*
X188261429Y-42712381D01*
X201812857Y-55712381D02*
X202146191Y-55236190D01*
X202384286Y-55712381D02*
X202384286Y-54712381D01*
X202003333Y-54712381D01*
X201908095Y-54760000D01*
X201860476Y-54807619D01*
X201812857Y-54902857D01*
X201812857Y-55045714D01*
X201860476Y-55140952D01*
X201908095Y-55188571D01*
X202003333Y-55236190D01*
X202384286Y-55236190D01*
X201431905Y-54807619D02*
X201384286Y-54760000D01*
X201289048Y-54712381D01*
X201050952Y-54712381D01*
X200955714Y-54760000D01*
X200908095Y-54807619D01*
X200860476Y-54902857D01*
X200860476Y-54998095D01*
X200908095Y-55140952D01*
X201479524Y-55712381D01*
X200860476Y-55712381D01*
X199908095Y-55712381D02*
X200479524Y-55712381D01*
X200193810Y-55712381D02*
X200193810Y-54712381D01*
X200289048Y-54855238D01*
X200384286Y-54950476D01*
X200479524Y-54998095D01*
X189812857Y-55712381D02*
X190146191Y-55236190D01*
X190384286Y-55712381D02*
X190384286Y-54712381D01*
X190003333Y-54712381D01*
X189908095Y-54760000D01*
X189860476Y-54807619D01*
X189812857Y-54902857D01*
X189812857Y-55045714D01*
X189860476Y-55140952D01*
X189908095Y-55188571D01*
X190003333Y-55236190D01*
X190384286Y-55236190D01*
X189431905Y-54807619D02*
X189384286Y-54760000D01*
X189289048Y-54712381D01*
X189050952Y-54712381D01*
X188955714Y-54760000D01*
X188908095Y-54807619D01*
X188860476Y-54902857D01*
X188860476Y-54998095D01*
X188908095Y-55140952D01*
X189479524Y-55712381D01*
X188860476Y-55712381D01*
X188479524Y-54807619D02*
X188431905Y-54760000D01*
X188336667Y-54712381D01*
X188098571Y-54712381D01*
X188003333Y-54760000D01*
X187955714Y-54807619D01*
X187908095Y-54902857D01*
X187908095Y-54998095D01*
X187955714Y-55140952D01*
X188527143Y-55712381D01*
X187908095Y-55712381D01*
X201812857Y-67712381D02*
X202146191Y-67236190D01*
X202384286Y-67712381D02*
X202384286Y-66712381D01*
X202003333Y-66712381D01*
X201908095Y-66760000D01*
X201860476Y-66807619D01*
X201812857Y-66902857D01*
X201812857Y-67045714D01*
X201860476Y-67140952D01*
X201908095Y-67188571D01*
X202003333Y-67236190D01*
X202384286Y-67236190D01*
X201431905Y-66807619D02*
X201384286Y-66760000D01*
X201289048Y-66712381D01*
X201050952Y-66712381D01*
X200955714Y-66760000D01*
X200908095Y-66807619D01*
X200860476Y-66902857D01*
X200860476Y-66998095D01*
X200908095Y-67140952D01*
X201479524Y-67712381D01*
X200860476Y-67712381D01*
X200527143Y-66712381D02*
X199908095Y-66712381D01*
X200241429Y-67093333D01*
X200098571Y-67093333D01*
X200003333Y-67140952D01*
X199955714Y-67188571D01*
X199908095Y-67283810D01*
X199908095Y-67521905D01*
X199955714Y-67617143D01*
X200003333Y-67664762D01*
X200098571Y-67712381D01*
X200384286Y-67712381D01*
X200479524Y-67664762D01*
X200527143Y-67617143D01*
X189832857Y-67712381D02*
X190166191Y-67236190D01*
X190404286Y-67712381D02*
X190404286Y-66712381D01*
X190023333Y-66712381D01*
X189928095Y-66760000D01*
X189880476Y-66807619D01*
X189832857Y-66902857D01*
X189832857Y-67045714D01*
X189880476Y-67140952D01*
X189928095Y-67188571D01*
X190023333Y-67236190D01*
X190404286Y-67236190D01*
X189451905Y-66807619D02*
X189404286Y-66760000D01*
X189309048Y-66712381D01*
X189070952Y-66712381D01*
X188975714Y-66760000D01*
X188928095Y-66807619D01*
X188880476Y-66902857D01*
X188880476Y-66998095D01*
X188928095Y-67140952D01*
X189499524Y-67712381D01*
X188880476Y-67712381D01*
X188023333Y-67045714D02*
X188023333Y-67712381D01*
X188261429Y-66664762D02*
X188499524Y-67379048D01*
X187880476Y-67379048D01*
X201812857Y-79702381D02*
X202146191Y-79226190D01*
X202384286Y-79702381D02*
X202384286Y-78702381D01*
X202003333Y-78702381D01*
X201908095Y-78750000D01*
X201860476Y-78797619D01*
X201812857Y-78892857D01*
X201812857Y-79035714D01*
X201860476Y-79130952D01*
X201908095Y-79178571D01*
X202003333Y-79226190D01*
X202384286Y-79226190D01*
X201431905Y-78797619D02*
X201384286Y-78750000D01*
X201289048Y-78702381D01*
X201050952Y-78702381D01*
X200955714Y-78750000D01*
X200908095Y-78797619D01*
X200860476Y-78892857D01*
X200860476Y-78988095D01*
X200908095Y-79130952D01*
X201479524Y-79702381D01*
X200860476Y-79702381D01*
X199955714Y-78702381D02*
X200431905Y-78702381D01*
X200479524Y-79178571D01*
X200431905Y-79130952D01*
X200336667Y-79083333D01*
X200098571Y-79083333D01*
X200003333Y-79130952D01*
X199955714Y-79178571D01*
X199908095Y-79273810D01*
X199908095Y-79511905D01*
X199955714Y-79607143D01*
X200003333Y-79654762D01*
X200098571Y-79702381D01*
X200336667Y-79702381D01*
X200431905Y-79654762D01*
X200479524Y-79607143D01*
X189832857Y-79712381D02*
X190166191Y-79236190D01*
X190404286Y-79712381D02*
X190404286Y-78712381D01*
X190023333Y-78712381D01*
X189928095Y-78760000D01*
X189880476Y-78807619D01*
X189832857Y-78902857D01*
X189832857Y-79045714D01*
X189880476Y-79140952D01*
X189928095Y-79188571D01*
X190023333Y-79236190D01*
X190404286Y-79236190D01*
X189451905Y-78807619D02*
X189404286Y-78760000D01*
X189309048Y-78712381D01*
X189070952Y-78712381D01*
X188975714Y-78760000D01*
X188928095Y-78807619D01*
X188880476Y-78902857D01*
X188880476Y-78998095D01*
X188928095Y-79140952D01*
X189499524Y-79712381D01*
X188880476Y-79712381D01*
X188023333Y-78712381D02*
X188213810Y-78712381D01*
X188309048Y-78760000D01*
X188356667Y-78807619D01*
X188451905Y-78950476D01*
X188499524Y-79140952D01*
X188499524Y-79521905D01*
X188451905Y-79617143D01*
X188404286Y-79664762D01*
X188309048Y-79712381D01*
X188118571Y-79712381D01*
X188023333Y-79664762D01*
X187975714Y-79617143D01*
X187928095Y-79521905D01*
X187928095Y-79283810D01*
X187975714Y-79188571D01*
X188023333Y-79140952D01*
X188118571Y-79093333D01*
X188309048Y-79093333D01*
X188404286Y-79140952D01*
X188451905Y-79188571D01*
X188499524Y-79283810D01*
X201812857Y-91712381D02*
X202146191Y-91236190D01*
X202384286Y-91712381D02*
X202384286Y-90712381D01*
X202003333Y-90712381D01*
X201908095Y-90760000D01*
X201860476Y-90807619D01*
X201812857Y-90902857D01*
X201812857Y-91045714D01*
X201860476Y-91140952D01*
X201908095Y-91188571D01*
X202003333Y-91236190D01*
X202384286Y-91236190D01*
X201431905Y-90807619D02*
X201384286Y-90760000D01*
X201289048Y-90712381D01*
X201050952Y-90712381D01*
X200955714Y-90760000D01*
X200908095Y-90807619D01*
X200860476Y-90902857D01*
X200860476Y-90998095D01*
X200908095Y-91140952D01*
X201479524Y-91712381D01*
X200860476Y-91712381D01*
X200527143Y-90712381D02*
X199860476Y-90712381D01*
X200289048Y-91712381D01*
X189832857Y-91712381D02*
X190166191Y-91236190D01*
X190404286Y-91712381D02*
X190404286Y-90712381D01*
X190023333Y-90712381D01*
X189928095Y-90760000D01*
X189880476Y-90807619D01*
X189832857Y-90902857D01*
X189832857Y-91045714D01*
X189880476Y-91140952D01*
X189928095Y-91188571D01*
X190023333Y-91236190D01*
X190404286Y-91236190D01*
X189451905Y-90807619D02*
X189404286Y-90760000D01*
X189309048Y-90712381D01*
X189070952Y-90712381D01*
X188975714Y-90760000D01*
X188928095Y-90807619D01*
X188880476Y-90902857D01*
X188880476Y-90998095D01*
X188928095Y-91140952D01*
X189499524Y-91712381D01*
X188880476Y-91712381D01*
X188309048Y-91140952D02*
X188404286Y-91093333D01*
X188451905Y-91045714D01*
X188499524Y-90950476D01*
X188499524Y-90902857D01*
X188451905Y-90807619D01*
X188404286Y-90760000D01*
X188309048Y-90712381D01*
X188118571Y-90712381D01*
X188023333Y-90760000D01*
X187975714Y-90807619D01*
X187928095Y-90902857D01*
X187928095Y-90950476D01*
X187975714Y-91045714D01*
X188023333Y-91093333D01*
X188118571Y-91140952D01*
X188309048Y-91140952D01*
X188404286Y-91188571D01*
X188451905Y-91236190D01*
X188499524Y-91331429D01*
X188499524Y-91521905D01*
X188451905Y-91617143D01*
X188404286Y-91664762D01*
X188309048Y-91712381D01*
X188118571Y-91712381D01*
X188023333Y-91664762D01*
X187975714Y-91617143D01*
X187928095Y-91521905D01*
X187928095Y-91331429D01*
X187975714Y-91236190D01*
X188023333Y-91188571D01*
X188118571Y-91140952D01*
X201812857Y-103712381D02*
X202146191Y-103236190D01*
X202384286Y-103712381D02*
X202384286Y-102712381D01*
X202003333Y-102712381D01*
X201908095Y-102760000D01*
X201860476Y-102807619D01*
X201812857Y-102902857D01*
X201812857Y-103045714D01*
X201860476Y-103140952D01*
X201908095Y-103188571D01*
X202003333Y-103236190D01*
X202384286Y-103236190D01*
X201431905Y-102807619D02*
X201384286Y-102760000D01*
X201289048Y-102712381D01*
X201050952Y-102712381D01*
X200955714Y-102760000D01*
X200908095Y-102807619D01*
X200860476Y-102902857D01*
X200860476Y-102998095D01*
X200908095Y-103140952D01*
X201479524Y-103712381D01*
X200860476Y-103712381D01*
X200384286Y-103712381D02*
X200193810Y-103712381D01*
X200098571Y-103664762D01*
X200050952Y-103617143D01*
X199955714Y-103474286D01*
X199908095Y-103283810D01*
X199908095Y-102902857D01*
X199955714Y-102807619D01*
X200003333Y-102760000D01*
X200098571Y-102712381D01*
X200289048Y-102712381D01*
X200384286Y-102760000D01*
X200431905Y-102807619D01*
X200479524Y-102902857D01*
X200479524Y-103140952D01*
X200431905Y-103236190D01*
X200384286Y-103283810D01*
X200289048Y-103331429D01*
X200098571Y-103331429D01*
X200003333Y-103283810D01*
X199955714Y-103236190D01*
X199908095Y-103140952D01*
X189832857Y-103712381D02*
X190166191Y-103236190D01*
X190404286Y-103712381D02*
X190404286Y-102712381D01*
X190023333Y-102712381D01*
X189928095Y-102760000D01*
X189880476Y-102807619D01*
X189832857Y-102902857D01*
X189832857Y-103045714D01*
X189880476Y-103140952D01*
X189928095Y-103188571D01*
X190023333Y-103236190D01*
X190404286Y-103236190D01*
X189499524Y-102712381D02*
X188880476Y-102712381D01*
X189213810Y-103093333D01*
X189070952Y-103093333D01*
X188975714Y-103140952D01*
X188928095Y-103188571D01*
X188880476Y-103283810D01*
X188880476Y-103521905D01*
X188928095Y-103617143D01*
X188975714Y-103664762D01*
X189070952Y-103712381D01*
X189356667Y-103712381D01*
X189451905Y-103664762D01*
X189499524Y-103617143D01*
X188261429Y-102712381D02*
X188166190Y-102712381D01*
X188070952Y-102760000D01*
X188023333Y-102807619D01*
X187975714Y-102902857D01*
X187928095Y-103093333D01*
X187928095Y-103331429D01*
X187975714Y-103521905D01*
X188023333Y-103617143D01*
X188070952Y-103664762D01*
X188166190Y-103712381D01*
X188261429Y-103712381D01*
X188356667Y-103664762D01*
X188404286Y-103617143D01*
X188451905Y-103521905D01*
X188499524Y-103331429D01*
X188499524Y-103093333D01*
X188451905Y-102902857D01*
X188404286Y-102807619D01*
X188356667Y-102760000D01*
X188261429Y-102712381D01*
X201812857Y-115712381D02*
X202146191Y-115236190D01*
X202384286Y-115712381D02*
X202384286Y-114712381D01*
X202003333Y-114712381D01*
X201908095Y-114760000D01*
X201860476Y-114807619D01*
X201812857Y-114902857D01*
X201812857Y-115045714D01*
X201860476Y-115140952D01*
X201908095Y-115188571D01*
X202003333Y-115236190D01*
X202384286Y-115236190D01*
X201479524Y-114712381D02*
X200860476Y-114712381D01*
X201193810Y-115093333D01*
X201050952Y-115093333D01*
X200955714Y-115140952D01*
X200908095Y-115188571D01*
X200860476Y-115283810D01*
X200860476Y-115521905D01*
X200908095Y-115617143D01*
X200955714Y-115664762D01*
X201050952Y-115712381D01*
X201336667Y-115712381D01*
X201431905Y-115664762D01*
X201479524Y-115617143D01*
X199908095Y-115712381D02*
X200479524Y-115712381D01*
X200193810Y-115712381D02*
X200193810Y-114712381D01*
X200289048Y-114855238D01*
X200384286Y-114950476D01*
X200479524Y-114998095D01*
X189832857Y-115712381D02*
X190166191Y-115236190D01*
X190404286Y-115712381D02*
X190404286Y-114712381D01*
X190023333Y-114712381D01*
X189928095Y-114760000D01*
X189880476Y-114807619D01*
X189832857Y-114902857D01*
X189832857Y-115045714D01*
X189880476Y-115140952D01*
X189928095Y-115188571D01*
X190023333Y-115236190D01*
X190404286Y-115236190D01*
X189499524Y-114712381D02*
X188880476Y-114712381D01*
X189213810Y-115093333D01*
X189070952Y-115093333D01*
X188975714Y-115140952D01*
X188928095Y-115188571D01*
X188880476Y-115283810D01*
X188880476Y-115521905D01*
X188928095Y-115617143D01*
X188975714Y-115664762D01*
X189070952Y-115712381D01*
X189356667Y-115712381D01*
X189451905Y-115664762D01*
X189499524Y-115617143D01*
X188499524Y-114807619D02*
X188451905Y-114760000D01*
X188356667Y-114712381D01*
X188118571Y-114712381D01*
X188023333Y-114760000D01*
X187975714Y-114807619D01*
X187928095Y-114902857D01*
X187928095Y-114998095D01*
X187975714Y-115140952D01*
X188547143Y-115712381D01*
X187928095Y-115712381D01*
X154433333Y-46252381D02*
X154433333Y-46966667D01*
X154480953Y-47109524D01*
X154576191Y-47204762D01*
X154719048Y-47252381D01*
X154814286Y-47252381D01*
X153433333Y-47252381D02*
X154004762Y-47252381D01*
X153719048Y-47252381D02*
X153719048Y-46252381D01*
X153814286Y-46395238D01*
X153909524Y-46490476D01*
X154004762Y-46538095D01*
X210313333Y-46252381D02*
X210313333Y-46966667D01*
X210360953Y-47109524D01*
X210456191Y-47204762D01*
X210599048Y-47252381D01*
X210694286Y-47252381D01*
X209884762Y-46347619D02*
X209837143Y-46300000D01*
X209741905Y-46252381D01*
X209503809Y-46252381D01*
X209408571Y-46300000D01*
X209360952Y-46347619D01*
X209313333Y-46442857D01*
X209313333Y-46538095D01*
X209360952Y-46680952D01*
X209932381Y-47252381D01*
X209313333Y-47252381D01*
X222762857Y-26962381D02*
X223096191Y-26486190D01*
X223334286Y-26962381D02*
X223334286Y-25962381D01*
X222953333Y-25962381D01*
X222858095Y-26010000D01*
X222810476Y-26057619D01*
X222762857Y-26152857D01*
X222762857Y-26295714D01*
X222810476Y-26390952D01*
X222858095Y-26438571D01*
X222953333Y-26486190D01*
X223334286Y-26486190D01*
X222429524Y-25962381D02*
X221810476Y-25962381D01*
X222143810Y-26343333D01*
X222000952Y-26343333D01*
X221905714Y-26390952D01*
X221858095Y-26438571D01*
X221810476Y-26533810D01*
X221810476Y-26771905D01*
X221858095Y-26867143D01*
X221905714Y-26914762D01*
X222000952Y-26962381D01*
X222286667Y-26962381D01*
X222381905Y-26914762D01*
X222429524Y-26867143D01*
X221477143Y-25962381D02*
X220858095Y-25962381D01*
X221191429Y-26343333D01*
X221048571Y-26343333D01*
X220953333Y-26390952D01*
X220905714Y-26438571D01*
X220858095Y-26533810D01*
X220858095Y-26771905D01*
X220905714Y-26867143D01*
X220953333Y-26914762D01*
X221048571Y-26962381D01*
X221334286Y-26962381D01*
X221429524Y-26914762D01*
X221477143Y-26867143D01*
X143752857Y-25522381D02*
X144086191Y-25046190D01*
X144324286Y-25522381D02*
X144324286Y-24522381D01*
X143943333Y-24522381D01*
X143848095Y-24570000D01*
X143800476Y-24617619D01*
X143752857Y-24712857D01*
X143752857Y-24855714D01*
X143800476Y-24950952D01*
X143848095Y-24998571D01*
X143943333Y-25046190D01*
X144324286Y-25046190D01*
X143419524Y-24522381D02*
X142800476Y-24522381D01*
X143133810Y-24903333D01*
X142990952Y-24903333D01*
X142895714Y-24950952D01*
X142848095Y-24998571D01*
X142800476Y-25093810D01*
X142800476Y-25331905D01*
X142848095Y-25427143D01*
X142895714Y-25474762D01*
X142990952Y-25522381D01*
X143276667Y-25522381D01*
X143371905Y-25474762D01*
X143419524Y-25427143D01*
X141943333Y-24855714D02*
X141943333Y-25522381D01*
X142181429Y-24474762D02*
X142419524Y-25189048D01*
X141800476Y-25189048D01*
M02*
