M48
;DRILL file {KiCad 4.0.7} date 02/16/18 20:59:07
;FORMAT={3:3/ absolute / metric / suppress leading zeros}
FMAT,2
METRIC,TZ
T1C0.400
T2C0.800
T3C1.000
T4C1.016
T5C3.500
%
G90
G05
M71
T1
X141720Y-28250
X147020Y-24800
X214980Y-94620
X214980Y-97340
X223490Y-26340
T2
X161300Y-27410
X161300Y-35030
X161300Y-39410
X161300Y-47030
X161300Y-51410
X161300Y-59030
X161300Y-63410
X161300Y-71030
X161300Y-75410
X161300Y-83030
X161300Y-87410
X161300Y-95030
X161300Y-99410
X161300Y-107030
X161300Y-111410
X161300Y-119030
X163840Y-27410
X163840Y-35030
X163840Y-39410
X163840Y-47030
X163840Y-51410
X163840Y-59030
X163840Y-63410
X163840Y-71030
X163840Y-75410
X163840Y-83030
X163840Y-87410
X163840Y-95030
X163840Y-99410
X163840Y-107030
X163840Y-111410
X163840Y-119030
X166380Y-27410
X166380Y-35030
X166380Y-39410
X166380Y-47030
X166380Y-51410
X166380Y-59030
X166380Y-63410
X166380Y-71030
X166380Y-75410
X166380Y-83030
X166380Y-87410
X166380Y-95030
X166380Y-99410
X166380Y-107030
X166380Y-111410
X166380Y-119030
X173360Y-27410
X173360Y-35030
X173360Y-39410
X173360Y-47030
X173360Y-51410
X173360Y-59030
X173360Y-63410
X173360Y-71030
X173360Y-75410
X173360Y-83030
X173360Y-87410
X173360Y-95030
X173360Y-99410
X173360Y-107030
X173360Y-111410
X173360Y-119030
X175900Y-27410
X175900Y-35030
X175900Y-39410
X175900Y-47030
X175900Y-51410
X175900Y-59030
X175900Y-63410
X175900Y-71030
X175900Y-75410
X175900Y-83030
X175900Y-87410
X175900Y-95030
X175900Y-99410
X175900Y-107030
X175900Y-111410
X175900Y-119030
X178440Y-27410
X178440Y-35030
X178440Y-39410
X178440Y-47030
X178440Y-51410
X178440Y-59030
X178440Y-63410
X178440Y-71030
X178440Y-75410
X178440Y-83030
X178440Y-87410
X178440Y-95030
X178440Y-99410
X178440Y-107030
X178440Y-111410
X178440Y-119030
X185460Y-27410
X185460Y-35030
X185460Y-39410
X185460Y-47030
X185460Y-51410
X185460Y-59030
X185460Y-63410
X185460Y-71030
X185460Y-75410
X185460Y-83030
X185460Y-87410
X185460Y-95030
X185460Y-99410
X185460Y-107030
X185460Y-111410
X185460Y-119030
X188000Y-27410
X188000Y-35030
X188000Y-39410
X188000Y-47030
X188000Y-51410
X188000Y-59030
X188000Y-63410
X188000Y-71030
X188000Y-75410
X188000Y-83030
X188000Y-87410
X188000Y-95030
X188000Y-99410
X188000Y-107030
X188000Y-111410
X188000Y-119030
X190540Y-27410
X190540Y-35030
X190540Y-39410
X190540Y-47030
X190540Y-51410
X190540Y-59030
X190540Y-63410
X190540Y-71030
X190540Y-75410
X190540Y-83030
X190540Y-87410
X190540Y-95030
X190540Y-99410
X190540Y-107030
X190540Y-111410
X190540Y-119030
X197440Y-27410
X197440Y-35030
X197440Y-39410
X197440Y-47030
X197440Y-51410
X197440Y-59030
X197440Y-63410
X197440Y-71030
X197440Y-75410
X197440Y-83030
X197440Y-87410
X197440Y-95030
X197440Y-99410
X197440Y-107030
X197440Y-111410
X197440Y-119030
X199980Y-27410
X199980Y-35030
X199980Y-39410
X199980Y-47030
X199980Y-51410
X199980Y-59030
X199980Y-63410
X199980Y-71030
X199980Y-75410
X199980Y-83030
X199980Y-87410
X199980Y-95030
X199980Y-99410
X199980Y-107030
X199980Y-111410
X199980Y-119030
X202520Y-27410
X202520Y-35030
X202520Y-39410
X202520Y-47030
X202520Y-51410
X202520Y-59030
X202520Y-63410
X202520Y-71030
X202520Y-75410
X202520Y-83030
X202520Y-87410
X202520Y-95030
X202520Y-99410
X202520Y-107030
X202520Y-111410
X202520Y-119030
T3
X152830Y-49130
X152830Y-51670
X152830Y-54210
X152830Y-56750
X152830Y-59290
X152830Y-61830
X152830Y-64370
X152830Y-66910
X152830Y-69450
X152830Y-71990
X152830Y-74530
X152830Y-77070
X152830Y-79610
X152830Y-82150
X152830Y-84690
X152830Y-87230
X152830Y-89770
X152830Y-92310
X152830Y-94850
X152830Y-97390
X155370Y-49130
X155370Y-51670
X155370Y-54210
X155370Y-56750
X155370Y-59290
X155370Y-61830
X155370Y-64370
X155370Y-66910
X155370Y-69450
X155370Y-71990
X155370Y-74530
X155370Y-77070
X155370Y-79610
X155370Y-82150
X155370Y-84690
X155370Y-87230
X155370Y-89770
X155370Y-92310
X155370Y-94850
X155370Y-97390
X208710Y-49130
X208710Y-51670
X208710Y-54210
X208710Y-56750
X208710Y-59290
X208710Y-61830
X208710Y-64370
X208710Y-66910
X208710Y-69450
X208710Y-71990
X208710Y-74530
X208710Y-77070
X208710Y-79610
X208710Y-82150
X208710Y-84690
X208710Y-87230
X208710Y-89770
X208710Y-92310
X208710Y-94850
X208710Y-97390
X211250Y-49130
X211250Y-51670
X211250Y-54210
X211250Y-56750
X211250Y-59290
X211250Y-61830
X211250Y-64370
X211250Y-66910
X211250Y-69450
X211250Y-71990
X211250Y-74530
X211250Y-77070
X211250Y-79610
X211250Y-82150
X211250Y-84690
X211250Y-87230
X211250Y-89770
X211250Y-92310
X211250Y-94850
X211250Y-97390
T4
X138990Y-30280
X138990Y-32820
X138990Y-35360
X138990Y-37900
X138990Y-40440
X138990Y-42980
X138990Y-45520
X138990Y-48060
X138990Y-53140
X138990Y-55680
X138990Y-58220
X138990Y-60760
X138990Y-63300
X138990Y-65840
X138990Y-68380
X138990Y-70920
X138990Y-76000
X138990Y-78540
X138990Y-81080
X138990Y-83620
X138990Y-86160
X138990Y-88700
X138990Y-91240
X138990Y-93780
X138990Y-98860
X138990Y-101400
X138990Y-103940
X138990Y-106480
X138990Y-109020
X138990Y-111560
X138990Y-114100
X138990Y-116640
X225030Y-30310
X225030Y-32850
X225030Y-35390
X225030Y-37930
X225030Y-40470
X225030Y-43010
X225030Y-45550
X225030Y-48090
X225030Y-53170
X225030Y-55710
X225030Y-58250
X225030Y-60790
X225030Y-63330
X225030Y-65870
X225030Y-68410
X225030Y-70950
X225030Y-76030
X225030Y-78570
X225030Y-81110
X225030Y-83650
X225030Y-86190
X225030Y-88730
X225030Y-91270
X225030Y-93810
X225030Y-98890
X225030Y-101430
X225030Y-103970
X225030Y-106510
X225030Y-109050
X225030Y-111590
X225030Y-114130
X225030Y-116670
T5
X154000Y-43000
X154000Y-103500
X210000Y-43000
X210000Y-103500
T0
M30
